<?xml version="1.0" encoding="utf-8" standalone="no"?>
<!DOCTYPE svg PUBLIC "-//W3C//DTD SVG 1.1//EN"
  "http://www.w3.org/Graphics/SVG/1.1/DTD/svg11.dtd">
<!-- Created with matplotlib (http://matplotlib.org/) -->
<svg height="360pt" version="1.1" viewBox="0 0 864 360" width="864pt" xmlns="http://www.w3.org/2000/svg" xmlns:xlink="http://www.w3.org/1999/xlink">
 <defs>
  <style type="text/css">
*{stroke-linecap:butt;stroke-linejoin:round;}
  </style>
 </defs>
 <g id="figure_1">
  <g id="patch_1">
   <path d="
M0 360
L864 360
L864 0
L0 0
z
" style="fill:#ffffff;"/>
  </g>
  <g id="axes_1">
   <g id="patch_2">
    <path d="
M108 306
L777.6 306
L777.6 36
L108 36
z
" style="fill:#ffffff;"/>
   </g>
   <g id="line2d_1">
    <path clip-path="url(#pf8ef257490)" d="
M108 304.631
L108.447 297.289
L109.116 278.941
L112.019 187.522
L112.689 174.786
L113.135 168.991
L113.582 165.468
L113.805 164.505
L114.028 164.08
L114.252 164.204
L114.475 164.852
L114.922 167.58
L115.368 172.087
L116.038 181.672
L116.931 198.609
L118.494 233.858
L119.61 257.261
L120.28 266.83
L120.95 273.758
L121.62 278.849
L122.29 282.554
L122.959 285.263
L123.629 287.232
L124.522 289.01
L124.746 289.383
L124.969 289.529
L125.192 289.309
L125.639 288.071
L126.085 285.836
L126.755 281.006
L127.648 272.629
L130.997 238.466
L131.667 233.784
L132.337 230.398
L132.783 228.984
L133.23 228.125
L133.677 227.96
L133.9 228.087
L134.346 228.817
L134.793 230.083
L135.463 232.941
L136.133 236.666
L137.472 245.898
L139.705 261.549
L140.598 266.323
L141.268 268.954
L141.938 270.703
L142.384 271.336
L142.831 271.546
L143.277 271.316
L143.724 270.727
L144.394 269.161
L145.287 265.969
L146.18 261.938
L149.082 248.051
L149.976 244.972
L150.645 243.345
L151.315 242.369
L151.762 242.083
L152.208 242.118
L152.655 242.37
L153.325 243.279
L153.995 244.708
L154.664 246.532
L156.004 250.877
L157.79 256.831
L158.907 259.718
L159.576 260.996
L160.246 261.837
L160.916 262.236
L161.363 262.226
L162.032 261.915
L162.702 261.215
L163.372 260.184
L164.488 257.887
L167.614 251.029
L168.507 249.655
L169.177 248.983
L169.847 248.618
L170.517 248.552
L170.963 248.661
L171.41 248.898
L172.08 249.463
L172.75 250.239
L173.643 251.501
L176.545 255.906
L177.438 256.894
L178.108 257.434
L178.778 257.795
L179.448 257.929
L180.341 257.799
L181.681 256.973
L182.35 256.391
L184.137 254.51
L185.476 253.103
L186.593 252.24
L187.039 251.96
L187.709 251.656
L189.272 251.551
L190.388 251.908
L195.97 255.488
L197.31 255.858
L198.203 255.899
L200.212 255.403
L201.552 254.788
L203.115 253.98
L206.017 253.002
L207.134 252.888
L209.143 253.176
L214.725 254.841
L218.298 254.762
L219.414 254.549
L220.084 245.913
L220.977 237.571
L221.87 231.482
L222.763 226.948
L223.656 223.663
L224.326 221.881
L224.996 220.659
L225.666 219.905
L226.112 219.629
L227.005 219.533
L228.122 219.989
L230.578 221.413
L231.471 221.618
L232.364 221.393
L233.034 221.002
L233.927 220.082
L235.043 218.383
L236.383 215.735
L240.402 206.937
L241.295 205.437
L242.188 204.217
L243.304 203.132
L244.421 202.544
L245.314 202.313
L246.43 202.247
L249.779 202.477
L252.012 201.907
L253.352 201.151
L257.371 197.559
L258.71 196.335
L261.39 194.478
L263.399 193.663
L264.962 193.374
L265.632 193.266
L270.767 192.729
L273.446 192.487
L274.116 192.409
L275.456 192.358
L276.572 192.305
L280.145 192.397
L281.931 192.521
L283.047 192.658
L284.833 192.884
L286.843 193.171
L289.745 193.657
L290.638 193.846
L300.016 195.912
L300.463 196.038
L302.249 196.503
L302.919 196.708
L305.821 197.533
L306.938 197.898
L307.831 198.161
L309.17 198.605
L316.092 201.113
L316.985 201.502
L320.334 202.95
L321.227 203.336
L329.935 207.924
L333.284 209.981
L338.419 213.556
L346.011 219.892
L349.583 223.321
L353.379 227.369
L355.611 229.904
L356.951 231.513
L360.747 236.221
L363.872 240.34
L365.435 242.393
L371.017 249.875
L376.376 256.598
L379.055 259.551
L379.725 260.041
L380.841 260.563
L382.851 260.991
L389.996 261.269
L391.112 261.26
L392.005 261.283
L394.684 261.284
L396.024 261.279
L398.48 261.28
L407.188 261.294
L409.867 261.287
L411.207 261.264
L413.663 261.28
L416.565 261.261
L417.458 261.271
L418.128 261.286
L419.691 261.268
L421.701 261.284
L426.836 261.278
L427.729 261.269
L486.004 261.265
L486.673 261.283
L491.139 261.3
L491.809 261.279
L492.925 261.289
L500.07 261.305
L501.41 261.27
L502.526 261.289
L503.866 261.29
L509.894 261.284
L512.127 261.281
L518.378 261.289
L543.608 261.285
L545.171 261.29
L546.064 261.289
L556.558 261.305
L557.005 261.269
L557.898 261.272
L561.247 261.304
L562.14 261.268
L571.071 261.284
L572.188 261.273
L572.857 261.265
L582.458 261.27
L583.351 261.296
L584.691 261.276
L586.031 261.29
L586.924 261.261
L587.593 261.29
L590.719 261.285
L591.836 261.276
L595.185 261.299
L595.855 261.303
L597.418 261.288
L665.963 261.299
L666.633 269.745
L667.302 275.909
L667.972 280.401
L668.642 283.702
L669.312 286.092
L670.205 288.281
L670.875 289.431
L671.768 290.481
L672.661 291.191
L673.777 291.733
L674.894 292.023
L676.68 292.324
L677.35 292.345
L678.466 292.436
L679.359 292.429
L679.583 292.465
L680.476 292.068
L681.145 291.513
L682.262 290.3
L683.378 288.916
L685.164 286.625
L686.951 284.842
L688.737 283.824
L689.853 283.636
L690.3 283.609
L692.756 284.061
L695.212 284.607
L696.775 284.573
L698.114 284.245
L699.007 283.836
L700.124 283.209
L704.589 279.94
L707.938 278.316
L709.948 277.825
L712.85 277.335
L714.86 276.767
L716.869 275.926
L721.335 273.05
L727.14 269.245
L728.703 268.426
L729.819 267.805
L731.382 267.01
L743.216 260.027
L745.002 259.245
L747.458 258.425
L748.128 258.219
L754.826 256.579
L755.496 256.451
L756.612 256.221
L764.204 255.08
L765.766 254.995
L773.135 254.634
L774.697 254.568
L775.367 254.522
L776.93 254.465
L777.6 254.427
L777.6 254.427" style="fill:none;stroke:#ff0000;stroke-linecap:square;"/>
   </g>
   <g id="line2d_2">
    <path clip-path="url(#pf8ef257490)" d="
M108 304.664
L108.447 297.275
L109.116 278.937
L112.019 187.499
L112.689 174.791
L113.135 168.998
L113.582 165.446
L113.805 164.518
L114.028 164.091
L114.252 164.227
L114.475 164.831
L114.922 167.551
L115.368 172.08
L116.038 181.691
L116.931 198.558
L118.717 238.996
L119.61 257.228
L120.28 266.781
L120.95 273.765
L121.62 278.853
L122.29 282.528
L122.959 285.239
L123.629 287.206
L124.299 288.636
L124.746 289.356
L124.969 289.524
L125.192 289.329
L125.639 288.071
L126.085 285.804
L126.755 280.997
L127.648 272.626
L130.997 238.445
L131.667 233.755
L132.337 230.419
L132.783 228.972
L133.23 228.145
L133.453 227.967
L133.9 228.074
L134.346 228.796
L135.016 230.914
L135.686 234.07
L136.579 239.565
L138.365 252.463
L139.482 260.18
L140.375 265.249
L141.268 268.941
L141.938 270.66
L142.384 271.282
L142.608 271.474
L143.054 271.476
L143.501 271.049
L143.947 270.264
L144.394 269.137
L145.287 265.951
L146.18 261.949
L149.082 248.06
L149.976 244.963
L150.645 243.354
L151.315 242.371
L151.762 242.112
L151.985 242.041
L152.432 242.186
L152.878 242.617
L153.548 243.685
L154.441 245.85
L156.227 251.658
L157.79 256.815
L158.907 259.722
L159.576 260.993
L160.469 262.004
L160.916 262.214
L161.586 262.173
L162.256 261.685
L162.926 260.896
L163.819 259.326
L165.828 254.773
L167.391 251.401
L168.061 250.263
L168.954 249.188
L169.4 248.826
L170.07 248.554
L170.517 248.507
L170.963 248.649
L171.633 249.019
L172.75 250.212
L173.419 251.123
L175.875 254.993
L176.992 256.448
L178.108 257.425
L178.778 257.793
L179.448 257.917
L180.341 257.751
L181.457 257.158
L183.69 254.956
L185.699 252.88
L186.593 252.191
L187.486 251.725
L188.379 251.528
L189.049 251.491
L190.388 251.89
L192.174 252.995
L195.3 255.174
L196.417 255.654
L197.756 255.868
L199.096 255.706
L200.436 255.28
L202.668 254.182
L204.678 253.294
L206.687 252.919
L207.804 252.937
L209.813 253.355
L213.832 254.657
L215.618 254.909
L216.958 254.895
L217.851 254.797
L220.754 254.217
L222.093 254.02
L222.986 254.259
L223.656 254.731
L224.326 255.559
L225.219 257.197
L226.335 260.122
L227.452 263.755
L229.461 271.013
L230.801 275.527
L231.917 278.606
L232.81 280.451
L233.927 281.931
L234.597 282.377
L235.043 282.551
L235.49 282.581
L236.16 282.462
L237.276 281.859
L239.955 279.854
L240.402 279.617
L241.518 279.311
L242.411 279.44
L243.081 279.745
L243.974 280.402
L244.867 281.386
L246.207 283.222
L250.449 289.24
L251.565 290.252
L252.682 290.91
L253.575 291.199
L254.691 291.252
L256.254 291.014
L258.264 290.551
L258.934 290.43
L260.05 290.336
L262.506 290.879
L264.292 291.736
L265.632 292.085
L267.864 292.354
L269.204 292.424
L270.321 292.473
L271.214 292.462
L272.777 292.466
L273.67 292.51
L275.233 292.477
L276.349 292.511
L277.465 292.496
L279.028 292.5
L280.145 292.485
L281.484 292.516
L282.601 292.489
L283.94 292.52
L293.094 292.496
L294.657 292.489
L295.997 292.512
L297.113 292.494
L365.435 292.509
L366.105 292.49
L368.561 292.511
L377.716 292.508
L379.278 292.485
L380.172 292.518
L380.841 292.515
L383.967 292.481
L384.414 292.487
L389.549 292.495
L390.219 292.482
L399.15 292.502
L401.383 292.479
L402.052 292.502
L408.751 292.482
L424.826 292.501
L426.613 292.512
L432.864 292.506
L435.544 292.516
L436.213 292.487
L437.107 292.507
L438.223 292.478
L439.563 292.508
L442.688 292.498
L444.475 292.491
L446.037 292.509
L450.726 292.515
L451.843 292.506
L478.189 292.504
L479.305 292.486
L479.975 292.514
L482.208 292.49
L483.101 292.513
L483.994 292.492
L487.343 292.496
L490.246 292.484
L491.139 292.519
L500.07 292.504
L502.303 292.511
L503.196 292.491
L506.545 292.484
L507.215 292.51
L508.108 292.478
L532.891 292.51
L533.784 292.496
L541.152 292.513
L542.045 292.485
L544.725 292.509
L546.511 292.494
L547.627 292.512
L548.967 292.496
L550.083 292.511
L550.976 292.485
L551.646 292.52
L552.539 292.514
L554.995 292.498
L556.335 292.516
L556.782 292.495
L557.451 292.521
L558.121 292.478
L559.014 292.509
L559.907 292.498
L567.499 292.506
L568.838 292.483
L569.732 292.517
L571.294 292.487
L572.634 292.522
L573.304 292.484
L573.974 292.511
L575.537 292.5
L579.332 292.481
L580.225 292.511
L589.38 292.52
L590.049 292.492
L592.059 292.491
L594.515 292.498
L599.874 292.512
L600.99 292.498
L602.553 292.501
L603.446 292.492
L604.339 292.511
L607.911 292.512
L609.921 292.481
L610.591 292.494
L611.93 292.518
L618.405 292.495
L619.745 292.487
L620.415 292.52
L621.085 292.504
L625.327 292.5
L626.89 292.508
L628.006 292.49
L629.123 292.497
L630.685 292.511
L637.384 292.5
L638.723 292.513
L640.286 292.493
L642.072 292.516
L642.966 292.493
L647.654 292.495
L680.029 292.499
L680.922 292.028
L681.592 291.429
L682.485 290.401
L686.057 285.915
L687.62 284.576
L688.514 284.09
L689.407 283.851
L690.3 283.743
L691.639 283.906
L695.882 284.732
L697.221 284.554
L697.668 284.452
L699.901 283.371
L706.152 279.067
L707.715 278.388
L708.608 278.139
L709.725 277.879
L710.618 277.736
L711.511 277.553
L712.181 277.475
L713.074 277.28
L715.53 276.538
L718.209 275.174
L722.674 272.065
L728.033 268.758
L730.712 267.345
L732.052 266.621
L733.168 266.023
L734.955 264.934
L737.187 263.552
L741.653 260.859
L744.332 259.522
L746.565 258.683
L754.603 256.631
L755.496 256.464
L756.166 256.295
L757.282 256.078
L758.175 255.876
L758.845 255.791
L760.185 255.539
L761.524 255.383
L762.417 255.237
L763.31 255.167
L765.32 255.005
L767.553 254.89
L769.116 254.793
L770.902 254.722
L772.465 254.652
L775.144 254.535
L777.377 254.414
L777.6 254.42
L777.6 254.42" style="fill:none;stroke:#ff0000;stroke-linecap:square;"/>
   </g>
   <g id="line2d_3">
    <path clip-path="url(#pf8ef257490)" d="
M108 304.657
L108.447 297.29
L109.116 278.919
L112.019 187.53
L112.689 174.775
L113.135 169.025
L113.582 165.455
L113.805 164.52
L114.028 164.108
L114.252 164.232
L114.475 164.836
L114.922 167.551
L115.368 172.072
L116.038 181.709
L116.931 198.612
L118.494 233.955
L119.61 257.363
L120.28 266.881
L120.95 273.809
L121.62 278.87
L122.29 282.565
L122.959 285.257
L123.852 287.766
L124.746 289.399
L124.969 289.526
L125.192 289.332
L125.415 288.856
L125.862 287.087
L126.532 282.801
L127.202 277.069
L128.541 263.04
L130.327 244.24
L131.444 235.2
L132.114 231.417
L132.783 228.988
L133.23 228.164
L133.453 227.993
L133.677 227.991
L133.9 228.125
L134.346 228.85
L134.793 230.124
L135.463 232.961
L136.356 238.083
L138.142 250.884
L139.705 261.591
L140.598 266.335
L141.268 268.98
L141.938 270.706
L142.384 271.354
L142.831 271.529
L143.054 271.493
L143.501 271.084
L144.17 269.777
L144.84 267.713
L145.733 264.072
L147.52 255.239
L148.859 248.992
L149.752 245.663
L150.422 243.838
L151.092 242.651
L151.539 242.198
L151.985 242.094
L152.208 242.098
L152.655 242.389
L153.325 243.292
L154.218 245.28
L155.334 248.624
L157.79 256.796
L158.683 259.215
L159.576 260.992
L160.246 261.818
L160.693 262.138
L161.139 262.265
L161.586 262.168
L162.032 261.928
L162.702 261.219
L163.819 259.326
L165.828 254.756
L167.168 251.824
L168.061 250.255
L168.731 249.394
L169.624 248.695
L170.07 248.545
L170.74 248.579
L171.41 248.887
L172.08 249.428
L172.973 250.498
L175.652 254.637
L176.545 255.923
L177.438 256.929
L178.555 257.673
L179.225 257.885
L180.118 257.847
L180.787 257.574
L181.457 257.17
L183.69 254.976
L185.699 252.896
L186.816 252.071
L187.709 251.655
L188.602 251.529
L189.272 251.559
L190.165 251.797
L193.068 253.66
L193.961 254.33
L195.524 255.309
L197.31 255.839
L198.649 255.844
L200.436 255.301
L201.552 254.756
L202.892 254.101
L203.561 253.74
L205.794 253.031
L206.464 252.932
L207.134 252.902
L208.25 252.977
L209.813 253.354
L211.153 253.809
L213.162 254.462
L214.725 254.845
L216.735 254.911
L218.298 254.754
L219.414 254.527
L220.977 254.154
L221.87 254.063
L222.54 254.104
L223.21 254.426
L223.879 255.02
L224.326 255.586
L224.996 256.767
L225.889 258.884
L227.005 262.251
L228.791 268.619
L230.354 274.154
L231.694 278.064
L232.587 280.018
L233.257 281.134
L233.927 281.942
L234.82 282.504
L235.713 282.587
L236.383 282.383
L238.392 280.988
L239.285 280.282
L240.848 279.435
L241.518 279.3
L242.188 279.38
L243.081 279.719
L243.751 280.212
L244.867 281.365
L246.207 283.2
L248.216 286.287
L249.779 288.48
L251.342 290.075
L252.682 290.899
L253.798 291.227
L254.691 291.234
L256.031 291.07
L256.924 290.827
L258.487 290.497
L258.934 290.402
L261.613 290.565
L262.283 290.802
L265.855 292.125
L267.864 292.357
L278.358 292.518
L279.028 292.505
L280.145 292.502
L285.726 292.52
L286.396 292.481
L289.299 292.512
L290.415 292.491
L291.308 292.517
L291.978 292.484
L293.094 292.499
L297.783 292.482
L299.793 292.502
L301.132 292.491
L301.802 292.505
L302.695 292.481
L303.365 292.491
L310.063 292.508
L311.18 292.492
L313.636 292.5
L315.422 292.49
L317.208 292.504
L318.771 292.483
L319.441 292.492
L320.334 292.499
L321.674 292.488
L323.013 292.509
L324.13 292.513
L326.586 292.504
L330.828 292.522
L331.498 292.509
L333.507 292.499
L337.526 292.493
L338.419 292.513
L339.982 292.504
L341.545 292.505
L342.438 292.478
L343.108 292.514
L344.224 292.513
L345.564 292.487
L346.904 292.495
L348.243 292.494
L349.583 292.499
L351.146 292.493
L353.825 292.508
L354.718 292.496
L359.184 292.512
L361.64 292.521
L366.552 292.478
L367.222 292.518
L368.338 292.508
L372.58 292.5
L373.473 292.483
L380.841 292.494
L382.181 292.487
L384.414 292.51
L385.307 292.505
L386.646 292.502
L389.996 292.485
L391.559 292.493
L394.238 292.497
L396.917 292.52
L398.48 292.492
L399.15 292.493
L401.383 292.488
L402.499 292.506
L404.285 292.521
L404.955 292.486
L407.188 292.52
L408.081 292.497
L409.197 292.517
L411.43 292.508
L412.993 292.508
L416.342 292.488
L418.575 292.5
L419.691 292.516
L421.701 292.502
L423.263 292.49
L426.836 292.511
L427.952 292.484
L429.292 292.504
L432.418 292.51
L680.252 292.417
L680.922 292.02
L682.039 290.898
L683.601 288.944
L684.941 287.21
L686.057 285.891
L688.067 284.295
L688.96 283.951
L690.3 283.761
L691.416 283.867
L693.649 284.388
L694.988 284.658
L697.444 284.467
L698.114 284.28
L699.677 283.489
L701.017 282.6
L702.357 281.574
L706.152 279.037
L708.831 278.063
L712.85 277.319
L715.306 276.611
L717.986 275.266
L719.549 274.267
L720.888 273.355
L722.005 272.533
L722.898 271.918
L725.131 270.42
L727.363 269.104
L731.605 266.872
L732.722 266.251
L734.508 265.181
L735.401 264.651
L737.411 263.362
L742.769 260.228
L744.779 259.328
L746.118 258.842
L747.458 258.391
L753.486 256.868
L756.166 256.285
L762.194 255.275
L763.757 255.122
L764.873 255.012
L767.776 254.881
L769.339 254.815
L777.6 254.4
L777.6 254.4" style="fill:none;stroke:#ff0000;stroke-linecap:square;"/>
   </g>
   <g id="line2d_4">
    <path clip-path="url(#pf8ef257490)" d="
M108 304.638
L108.447 297.285
L109.116 278.923
L112.019 187.507
L112.689 174.773
L113.135 168.987
L113.582 165.451
L113.805 164.505
L114.028 164.071
L114.252 164.181
L114.475 164.806
L114.922 167.544
L115.368 172.027
L116.038 181.602
L116.931 198.454
L118.494 233.625
L119.61 257.044
L120.28 266.65
L120.95 273.656
L121.62 278.777
L122.29 282.502
L122.959 285.189
L123.629 287.19
L124.522 289.009
L124.969 289.488
L125.192 289.242
L125.415 288.751
L125.862 286.982
L126.309 284.272
L126.978 278.969
L128.095 267.79
L130.551 242.071
L131.444 235.098
L132.114 231.299
L132.783 228.857
L133.23 228.036
L133.677 227.859
L134.123 228.313
L134.57 229.312
L135.016 230.831
L135.686 233.983
L136.579 239.476
L138.365 252.383
L139.928 262.758
L140.821 267.141
L141.491 269.493
L141.938 270.549
L142.384 271.182
L142.608 271.357
L143.054 271.358
L143.501 270.944
L144.17 269.626
L144.84 267.569
L145.733 263.935
L147.52 255.098
L149.082 247.932
L149.976 244.868
L150.645 243.288
L151.315 242.274
L151.762 242.009
L152.208 242.036
L152.655 242.315
L153.101 242.825
L153.995 244.603
L155.111 247.815
L158.683 259.088
L159.353 260.51
L160.023 261.483
L160.693 262.002
L161.139 262.135
L161.809 261.971
L162.479 261.364
L163.372 260.047
L164.488 257.775
L167.614 250.879
L168.731 249.312
L169.4 248.74
L170.07 248.464
L170.517 248.434
L171.187 248.65
L171.856 249.141
L172.75 250.125
L174.536 252.782
L175.429 254.23
L177.215 256.585
L178.331 257.472
L179.001 257.745
L179.448 257.82
L180.341 257.68
L181.457 257.046
L182.574 256.047
L183.69 254.876
L185.253 253.202
L186.369 252.272
L187.262 251.76
L187.932 251.499
L189.272 251.453
L189.942 251.633
L191.505 252.463
L195.747 255.29
L196.863 255.667
L197.98 255.771
L198.649 255.734
L199.766 255.461
L205.124 253.081
L207.134 252.813
L207.804 252.85
L209.143 253.07
L210.706 253.568
L212.716 254.229
L214.502 254.694
L215.395 254.81
L217.628 254.748
L219.414 254.43
L220.084 245.762
L220.977 237.412
L221.87 231.285
L222.763 226.728
L223.433 224.125
L224.326 221.653
L224.996 220.383
L225.666 219.627
L226.112 219.326
L227.005 219.222
L227.675 219.415
L228.345 219.734
L229.908 220.698
L231.024 221.086
L231.917 221.04
L232.587 220.758
L233.48 219.984
L233.927 219.483
L235.043 217.754
L236.606 214.526
L239.732 207.392
L241.072 204.849
L242.411 202.993
L243.081 202.3
L243.974 201.673
L244.867 201.257
L245.537 201.089
L246.43 200.996
L247.323 200.977
L249.556 200.944
L251.119 200.595
L252.682 199.748
L253.575 199.083
L254.691 198.099
L260.273 192.519
L261.836 191.442
L262.729 190.955
L266.302 189.669
L268.088 189.185
L269.651 188.706
L270.321 188.523
L271.66 188.088
L272.33 187.887
L274.116 187.332
L279.921 185.786
L281.038 185.568
L281.931 185.357
L285.28 184.654
L286.396 184.452
L287.066 184.285
L288.852 183.899
L290.862 183.49
L292.201 183.197
L297.783 181.77
L300.686 180.911
L309.394 177.762
L315.199 175.097
L316.092 174.59
L316.762 174.247
L317.878 173.606
L322.79 170.575
L324.13 169.618
L326.139 168.119
L327.479 167.03
L329.712 165.134
L335.517 159.314
L339.312 154.735
L341.545 151.681
L343.555 148.758
L348.02 141.441
L353.155 131.677
L357.621 122.216
L367.222 100.847
L373.92 87.3859
L376.153 83.3911
L377.716 80.8158
L380.172 76.9303
L385.084 70.338
L388.656 66.8268
L391.112 65.1276
L392.898 64.2218
L394.015 63.7533
L397.587 62.7594
L398.927 62.5392
L399.596 62.4215
L401.159 62.2399
L402.276 62.1167
L404.285 61.9789
L406.071 61.8896
L406.964 61.8355
L409.42 61.7379
L411.876 61.6626
L412.77 61.6692
L417.235 61.5851
L418.128 61.6048
L419.691 61.5871
L435.32 61.548
L438.446 61.5445
L508.778 61.5197
L511.01 61.5445
L513.69 61.5413
L519.495 61.5382
L520.611 61.5404
L523.514 61.539
L527.756 61.5445
L528.649 61.5319
L529.542 61.5432
L540.036 61.5272
L541.376 61.5509
L542.045 61.534
L543.832 61.5542
L545.171 61.5261
L546.288 61.5692
L546.734 61.5427
L547.851 61.5693
L548.52 61.5606
L551.2 61.5193
L552.316 61.5495
L553.879 61.52
L569.732 61.5414
L571.071 61.5401
L573.081 61.5257
L573.75 61.5449
L593.175 61.5288
L594.068 61.553
L597.641 61.5487
L610.367 61.5433
L612.154 61.532
L615.949 61.5683
L616.619 61.5545
L620.638 61.5519
L621.308 61.5485
L626.22 61.5161
L627.56 61.5399
L628.676 61.5204
L630.016 61.5458
L632.472 61.5159
L633.588 61.5513
L636.491 61.523
L637.384 61.5397
L638.053 61.5387
L665.963 61.5552
L666.633 70.0374
L667.526 78.2031
L668.419 84.2469
L669.535 90.0376
L671.098 96.4805
L672.884 102.623
L674.224 106.574
L675.564 109.949
L676.68 112.389
L678.02 114.887
L679.583 117.29
L681.369 119.451
L683.378 121.459
L684.048 122.06
L685.388 123.29
L686.727 124.704
L689.183 128.045
L691.193 131.503
L695.882 140.186
L697.668 143.112
L702.133 149.272
L703.473 151.065
L706.152 155.096
L709.501 161.209
L714.637 172.121
L721.558 187.503
L723.568 192.225
L726.917 200.54
L732.275 214.057
L734.955 220.249
L736.741 223.954
L739.42 228.99
L742.546 234.001
L743.886 235.93
L747.011 239.969
L748.798 241.918
L749.691 242.847
L752.817 245.524
L755.273 247.183
L758.175 248.646
L764.65 250.94
L765.99 251.292
L767.776 251.763
L769.339 252.063
L770.678 252.316
L776.484 253.004
L777.6 253.082
L777.6 253.082" style="fill:none;stroke:#ff0000;stroke-linecap:square;"/>
   </g>
   <g id="line2d_5">
    <path clip-path="url(#pf8ef257490)" d="
M108 304.635
L108.447 297.311
L109.116 278.927
L112.019 187.531
L112.689 174.77
L113.135 168.988
L113.582 165.462
L113.805 164.518
L114.028 164.073
L114.252 164.221
L114.475 164.85
L114.922 167.55
L115.368 172.078
L116.038 181.712
L116.931 198.584
L118.717 239.067
L119.61 257.313
L120.28 266.848
L120.95 273.793
L121.62 278.848
L122.29 282.576
L122.959 285.274
L123.852 287.733
L124.746 289.4
L124.969 289.54
L125.192 289.338
L125.415 288.885
L125.862 287.135
L126.532 282.87
L127.425 274.969
L128.988 258.192
L130.551 242.26
L131.444 235.295
L132.114 231.467
L132.783 229.025
L133.23 228.207
L133.677 228.009
L133.9 228.135
L134.346 228.846
L135.016 230.974
L135.686 234.117
L136.802 241.104
L139.928 262.882
L140.821 267.35
L141.491 269.667
L141.938 270.741
L142.384 271.367
L142.831 271.613
L143.277 271.374
L143.724 270.781
L144.17 269.828
L144.84 267.76
L145.51 265.129
L146.626 259.862
L148.413 251.026
L149.306 247.275
L150.199 244.442
L150.869 243.059
L151.315 242.44
L151.762 242.165
L152.208 242.183
L152.655 242.429
L153.325 243.327
L153.995 244.741
L155.111 247.914
L158.237 258.09
L159.13 260.223
L159.8 261.371
L160.469 262.041
L161.139 262.288
L161.586 262.209
L162.032 261.965
L162.479 261.55
L163.372 260.214
L164.488 257.981
L167.614 251.057
L168.507 249.724
L169.4 248.862
L170.07 248.606
L170.74 248.629
L171.187 248.772
L172.303 249.712
L173.419 251.189
L175.206 253.98
L176.322 255.648
L177.215 256.724
L178.108 257.488
L178.778 257.816
L179.225 257.933
L179.894 257.936
L180.564 257.74
L181.681 257.044
L183.243 255.531
L185.253 253.37
L186.369 252.409
L187.486 251.778
L188.602 251.534
L190.165 251.862
L191.728 252.718
L195.97 255.531
L197.533 255.932
L199.096 255.791
L201.552 254.797
L205.124 253.223
L206.911 252.941
L208.473 253.075
L211.376 253.937
L213.162 254.531
L214.502 254.822
L215.172 254.921
L216.511 254.998
L218.074 254.815
L218.521 254.743
L222.317 254.123
L222.986 254.327
L223.433 254.632
L223.879 255.048
L224.549 256.001
L225.219 257.266
L226.335 260.18
L227.452 263.794
L230.578 274.922
L231.694 278.153
L232.81 280.546
L233.48 281.573
L234.373 282.393
L235.043 282.668
L235.713 282.715
L236.383 282.498
L237.722 281.659
L239.062 280.585
L240.625 279.674
L241.295 279.466
L241.965 279.458
L243.081 279.888
L243.974 280.55
L245.314 282.083
L250.226 289.182
L250.896 289.871
L252.012 290.757
L252.682 291.136
L254.245 291.508
L258.04 290.868
L259.38 290.643
L260.72 290.689
L262.059 291.041
L262.952 291.395
L263.846 291.775
L265.855 292.211
L266.971 292.321
L268.758 292.445
L269.651 292.432
L270.321 292.458
L271.66 292.477
L272.33 292.495
L273.446 292.473
L276.795 292.513
L278.358 292.511
L281.484 292.517
L282.154 292.521
L283.717 292.506
L298.453 292.489
L299.123 292.484
L303.588 292.519
L304.258 292.484
L307.384 292.518
L308.277 292.484
L309.394 292.52
L311.626 292.479
L312.966 292.506
L314.752 292.485
L316.985 292.482
L405.848 292.5
L407.411 292.506
L408.304 292.512
L414.779 292.478
L415.449 292.493
L417.012 292.513
L419.021 292.488
L419.691 292.506
L424.157 292.478
L424.826 292.505
L426.613 292.501
L427.506 292.496
L429.515 292.495
L430.408 292.489
L433.088 292.498
L434.427 292.516
L435.32 292.487
L436.883 292.521
L437.553 292.499
L438.893 292.52
L440.232 292.506
L443.358 292.511
L444.251 292.492
L474.84 292.499
L475.956 292.487
L477.296 292.519
L477.966 292.483
L478.636 292.516
L479.975 292.492
L484.441 292.487
L485.111 292.522
L485.78 292.507
L487.567 292.502
L488.906 292.499
L492.032 292.487
L495.828 292.497
L496.944 292.506
L498.954 292.52
L500.07 292.506
L501.856 292.514
L502.526 292.512
L513.913 292.511
L514.583 292.482
L515.476 292.507
L517.485 292.481
L518.155 292.492
L520.165 292.489
L521.058 292.505
L522.397 292.5
L525.077 292.51
L526.416 292.514
L529.765 292.521
L530.658 292.491
L549.86 292.479
L550.53 292.5
L552.316 292.511
L555.665 292.52
L556.558 292.483
L562.587 292.512
L578.886 292.493
L580.002 292.515
L580.895 292.484
L581.788 292.491
L585.361 292.494
L586.477 292.518
L587.37 292.483
L588.487 292.503
L589.603 292.51
L594.068 292.492
L594.962 292.521
L597.194 292.501
L598.534 292.517
L599.874 292.5
L601.436 292.513
L603.223 292.499
L604.116 292.48
L613.493 292.507
L618.629 292.493
L619.745 292.515
L620.861 292.499
L628.899 292.479
L630.016 292.517
L630.909 292.483
L632.025 292.512
L634.258 292.508
L635.151 292.479
L636.714 292.496
L640.51 292.483
L641.179 292.5
L643.412 292.491
L645.645 292.502
L654.129 292.503
L655.469 292.511
L658.371 292.493
L664.177 292.51
L665.293 292.478
L667.302 292.518
L671.768 292.499
L672.884 292.484
L680.476 292.34
L680.922 292.105
L681.815 291.265
L682.932 289.965
L686.281 285.861
L688.29 284.389
L689.183 284.071
L689.853 283.958
L691.639 284.093
L692.532 284.27
L694.319 284.754
L695.658 284.935
L697.444 284.783
L699.007 284.206
L700.347 283.413
L705.482 279.839
L706.599 279.307
L708.162 278.728
L711.064 278.156
L713.074 277.85
L715.53 277.213
L717.093 276.524
L717.986 276.064
L719.102 275.402
L719.995 274.837
L721.112 274.062
L725.8 271.03
L726.917 270.438
L727.81 269.94
L733.392 267.012
L737.634 264.382
L738.75 263.611
L744.109 260.516
L747.458 259.11
L749.914 258.352
L759.961 255.902
L760.854 255.753
L762.194 255.562
L769.562 254.949
L770.232 254.899
L777.6 254.517
L777.6 254.517" style="fill:none;stroke:#0000ff;stroke-linecap:square;"/>
   </g>
   <g id="line2d_6">
    <path clip-path="url(#pf8ef257490)" d="
M108 304.655
L108.447 297.308
L109.116 278.933
L112.019 187.527
L112.689 174.774
L113.359 166.924
L113.805 164.491
L114.028 164.079
L114.252 164.199
L114.475 164.815
L114.922 167.552
L115.368 172.042
L116.038 181.681
L116.931 198.569
L118.494 233.812
L119.61 257.239
L120.28 266.766
L120.95 273.767
L121.62 278.823
L122.29 282.526
L122.959 285.223
L123.629 287.226
L124.522 289.006
L124.746 289.378
L124.969 289.491
L125.192 289.301
L125.415 288.848
L125.862 287.05
L126.309 284.435
L126.978 279.097
L128.095 267.962
L130.327 244.28
L131.221 236.804
L131.89 232.526
L132.56 229.642
L133.007 228.469
L133.453 227.983
L133.677 227.945
L133.9 228.086
L134.346 228.796
L135.016 230.89
L135.686 234.059
L136.579 239.517
L140.375 265.232
L141.045 268.128
L141.714 270.196
L142.161 271.015
L142.608 271.442
L143.054 271.478
L143.501 271.067
L143.947 270.296
L144.617 268.438
L145.287 265.99
L146.403 260.867
L149.082 248.085
L149.976 244.985
L150.869 242.979
L151.315 242.38
L151.762 242.11
L152.208 242.118
L152.655 242.387
L153.101 242.941
L153.548 243.722
L154.218 245.265
L154.888 247.177
L156.451 252.386
L158.013 257.417
L159.13 260.171
L160.023 261.555
L160.469 262.003
L160.916 262.199
L161.586 262.157
L162.032 261.907
L162.926 260.894
L163.819 259.31
L164.712 257.389
L167.614 250.999
L168.731 249.403
L169.624 248.68
L170.294 248.517
L170.963 248.617
L171.856 249.215
L172.526 249.91
L173.643 251.453
L176.769 256.161
L177.885 257.28
L178.778 257.78
L179.225 257.874
L180.118 257.84
L181.234 257.315
L182.35 256.365
L183.243 255.446
L185.476 253.081
L187.039 251.937
L187.709 251.651
L188.379 251.53
L189.049 251.53
L189.942 251.721
L191.505 252.513
L193.068 253.657
L195.97 255.474
L196.863 255.776
L198.203 255.877
L199.543 255.61
L201.552 254.762
L204.008 253.572
L205.348 253.129
L206.017 252.993
L207.58 252.927
L208.25 252.983
L210.036 253.407
L210.706 253.662
L211.599 253.942
L214.055 254.713
L215.395 254.884
L217.181 254.881
L218.298 254.75
L222.093 254.049
L222.763 254.172
L223.433 254.546
L223.879 255
L224.773 256.315
L225.889 258.855
L227.005 262.245
L229.015 269.431
L230.354 274.131
L231.471 277.5
L232.587 280.08
L233.48 281.495
L234.373 282.36
L235.266 282.674
L236.16 282.549
L237.722 281.604
L239.732 280.088
L240.848 279.554
L241.741 279.41
L242.634 279.62
L243.528 280.141
L244.421 280.968
L245.314 282.087
L246.877 284.358
L249.779 288.662
L250.896 289.858
L252.012 290.747
L253.128 291.293
L254.468 291.494
L256.254 291.278
L258.264 290.797
L260.72 290.677
L262.283 291.093
L263.846 291.761
L265.632 292.209
L268.088 292.399
L269.204 292.456
L270.321 292.481
L275.233 292.505
L277.019 292.493
L277.912 292.495
L281.261 292.492
L348.913 292.501
L349.806 292.484
L352.709 292.513
L361.416 292.494
L362.979 292.501
L376.376 292.518
L377.269 292.496
L381.065 292.516
L381.734 292.511
L383.074 292.503
L384.19 292.509
L385.084 292.48
L387.093 292.513
L389.103 292.488
L398.927 292.485
L399.82 292.517
L409.42 292.509
L413.216 292.511
L413.886 292.52
L420.138 292.498
L421.254 292.51
L422.37 292.494
L448.493 292.513
L452.066 292.508
L454.968 292.499
L458.764 292.517
L460.997 292.485
L462.113 292.519
L462.783 292.495
L463.899 292.51
L464.793 292.498
L469.258 292.505
L471.937 292.485
L473.277 292.521
L474.617 292.495
L476.403 292.514
L477.296 292.489
L478.412 292.52
L479.082 292.487
L479.975 292.501
L483.324 292.483
L485.111 292.517
L488.236 292.488
L490.916 292.508
L491.809 292.508
L493.595 292.512
L507.884 292.515
L508.554 292.508
L514.583 292.51
L515.476 292.481
L517.709 292.512
L518.602 292.494
L521.058 292.48
L521.951 292.5
L523.067 292.492
L524.184 292.516
L525.523 292.487
L528.649 292.505
L531.998 292.497
L533.115 292.512
L566.159 292.484
L567.052 292.521
L570.625 292.495
L571.294 292.505
L572.634 292.502
L580.449 292.514
L581.788 292.487
L583.575 292.517
L584.468 292.489
L589.38 292.504
L631.802 292.479
L632.472 292.519
L633.588 292.493
L634.704 292.482
L680.476 292.363
L681.369 291.737
L682.932 289.971
L684.941 287.354
L686.727 285.457
L687.62 284.747
L688.514 284.272
L689.853 283.959
L690.97 283.949
L692.756 284.322
L693.649 284.567
L696.551 284.894
L697.444 284.744
L698.338 284.477
L701.017 282.931
L706.152 279.469
L709.948 278.349
L711.287 278.123
L713.297 277.798
L715.53 277.205
L718.432 275.811
L722.451 273.17
L723.344 272.545
L726.917 270.403
L733.392 267.026
L737.857 264.196
L742.546 261.268
L744.555 260.25
L746.118 259.601
L747.235 259.194
L749.691 258.376
L750.807 258.076
L752.593 257.578
L753.263 257.401
L754.603 257.069
L757.282 256.434
L758.175 256.251
L759.068 256.041
L761.524 255.607
L763.757 255.314
L764.65 255.236
L767.553 255.006
L768.222 254.983
L769.562 254.901
L773.804 254.681
L777.6 254.457
L777.6 254.457" style="fill:none;stroke:#0000ff;stroke-linecap:square;"/>
   </g>
   <g id="line2d_7">
    <path clip-path="url(#pf8ef257490)" d="
M108 304.637
L108.447 297.283
L109.116 278.914
L112.019 187.494
L112.689 174.787
L113.135 168.996
L113.582 165.431
L113.805 164.461
L114.028 164.053
L114.252 164.195
L114.475 164.808
L114.922 167.528
L115.368 171.979
L116.038 181.547
L116.931 198.369
L118.494 233.409
L119.61 256.907
L120.28 266.533
L120.95 273.579
L121.62 278.72
L122.29 282.435
L122.959 285.179
L123.629 287.142
L124.299 288.614
L124.746 289.344
L124.969 289.457
L125.192 289.235
L125.639 287.951
L126.085 285.702
L126.755 280.846
L127.648 272.461
L131.221 236.616
L131.89 232.365
L132.56 229.478
L133.007 228.33
L133.453 227.835
L133.677 227.839
L133.9 227.978
L134.346 228.67
L134.793 229.932
L135.463 232.757
L136.356 237.906
L137.695 247.324
L139.482 259.914
L140.375 265.017
L141.268 268.681
L141.714 269.964
L142.161 270.826
L142.608 271.212
L142.831 271.291
L143.277 271.102
L143.724 270.513
L144.17 269.515
L144.84 267.475
L145.733 263.839
L146.85 258.453
L148.636 249.776
L149.529 246.258
L150.422 243.711
L150.869 242.822
L151.539 242.038
L151.985 241.896
L152.432 242.075
L152.878 242.452
L153.548 243.536
L154.218 245.082
L155.557 249.177
L157.79 256.605
L158.907 259.512
L159.8 261.114
L160.469 261.818
L161.139 262.055
L161.586 262
L162.256 261.524
L162.926 260.727
L164.042 258.681
L165.158 256.191
L167.391 251.27
L168.284 249.812
L169.177 248.822
L169.624 248.56
L170.294 248.354
L170.963 248.489
L171.856 249.071
L172.526 249.779
L173.643 251.328
L174.536 252.724
L176.545 255.724
L177.438 256.708
L178.331 257.39
L178.778 257.605
L179.671 257.735
L180.341 257.586
L181.011 257.301
L181.904 256.627
L184.137 254.342
L184.806 253.599
L186.816 251.924
L187.932 251.455
L188.825 251.332
L190.612 251.869
L191.728 252.535
L193.737 253.992
L194.63 254.627
L196.863 255.619
L197.756 255.73
L198.649 255.652
L199.766 255.376
L200.436 255.144
L201.552 254.617
L205.348 252.942
L207.357 252.751
L208.25 252.826
L215.172 254.728
L217.851 254.646
L219.414 254.363
L220.084 245.686
L220.977 237.281
L221.87 231.135
L222.763 226.569
L223.656 223.278
L224.326 221.456
L224.996 220.243
L225.666 219.439
L226.335 219.056
L227.005 219.013
L227.898 219.303
L228.568 219.657
L230.578 220.689
L231.471 220.819
L232.141 220.68
L233.034 220.135
L233.704 219.449
L234.373 218.507
L235.266 216.989
L236.383 214.686
L240.848 204.826
L241.965 203.102
L242.858 202.057
L243.974 201.142
L245.09 200.667
L245.76 200.487
L246.653 200.419
L250.003 200.21
L252.459 199.108
L253.128 198.638
L254.021 197.905
L255.361 196.561
L259.157 192.502
L260.943 190.961
L263.846 189.283
L266.302 188.361
L267.641 187.96
L269.427 187.374
L271.214 186.782
L272.107 186.469
L277.465 184.805
L282.377 183.486
L286.62 182.393
L288.852 181.781
L289.745 181.5
L290.638 181.276
L291.755 180.938
L293.764 180.325
L294.881 179.921
L295.997 179.583
L298.453 178.673
L299.569 178.258
L305.598 175.692
L311.18 172.769
L314.306 170.869
L320.111 166.729
L323.237 164.154
L329.935 157.451
L334.4 152.062
L336.186 149.63
L337.303 148.045
L339.536 144.755
L342.885 139.34
L348.02 130.118
L352.932 120.544
L355.835 114.653
L357.398 111.496
L362.756 100.84
L371.017 85.9723
L372.58 83.4879
L373.92 81.4231
L377.046 76.8941
L379.948 73.0973
L383.744 69.1003
L386.423 67.0008
L389.772 65.0579
L391.782 64.2028
L393.568 63.5839
L394.238 63.4053
L396.471 62.8125
L397.14 62.6928
L400.713 62.0743
L402.052 61.9462
L403.392 61.7797
L404.508 61.7026
L405.625 61.5985
L409.197 61.4345
L410.537 61.3935
L411.207 61.3869
L416.789 61.2893
L422.37 61.2616
L423.263 61.2252
L423.933 61.2436
L427.282 61.2233
L428.845 61.2495
L431.078 61.2193
L433.757 61.2316
L442.912 61.2156
L444.698 61.2167
L445.368 61.2286
L447.377 61.2421
L450.28 61.2391
L451.396 61.234
L454.299 61.2111
L455.192 61.22
L458.318 61.2196
L459.657 61.2473
L460.327 61.2284
L461.22 61.212
L467.695 61.2413
L468.588 61.2141
L471.937 61.2147
L473.277 61.2425
L474.17 61.2303
L475.733 61.2051
L479.082 61.2245
L480.645 61.1965
L481.315 61.2123
L486.673 61.2218
L487.567 61.2354
L488.683 61.2372
L491.585 61.2424
L492.479 61.2348
L495.828 61.2498
L496.497 61.2158
L497.167 61.2115
L501.41 61.2242
L502.749 61.2146
L503.642 61.2499
L505.428 61.2203
L507.884 61.2329
L509.447 61.2217
L512.35 61.2547
L513.02 61.228
L514.136 61.246
L514.806 61.2065
L515.922 61.24
L516.592 61.2265
L520.834 61.2119
L521.951 61.2398
L526.863 61.2379
L572.188 61.2273
L573.304 61.2158
L574.644 61.22
L575.76 61.2282
L583.798 61.2196
L585.807 61.2231
L593.175 61.2232
L594.292 61.2086
L598.757 61.2314
L599.65 61.231
L600.99 61.216
L601.883 61.2151
L605.455 61.2242
L606.572 61.2116
L609.028 61.239
L609.921 61.2042
L611.037 61.2455
L612.6 61.2121
L613.493 61.2259
L615.949 61.2328
L617.959 61.2449
L618.629 61.2116
L620.192 61.2333
L621.308 61.2028
L622.201 61.2301
L623.094 61.2036
L627.113 61.2033
L639.393 61.2272
L640.286 61.2027
L640.956 61.2115
L641.849 61.2416
L653.459 61.2132
L657.255 61.214
L657.925 61.2197
L663.06 61.2257
L664.623 61.2484
L665.516 61.2092
L665.963 61.2461
L666.633 69.7725
L667.526 77.9608
L668.419 83.9729
L669.312 88.7399
L670.652 94.5582
L672.661 101.694
L674.001 105.709
L675.564 109.718
L677.127 112.984
L678.913 115.978
L680.252 117.797
L683.155 120.748
L687.397 124.859
L689.407 127.606
L692.309 132.593
L694.319 136.278
L696.998 140.8
L698.561 143.111
L701.687 147.101
L705.036 151.456
L707.269 154.871
L710.171 160.081
L714.413 168.646
L716.2 172.349
L720.888 182.167
L728.256 199.604
L731.382 207.574
L734.508 215.127
L737.187 221.034
L740.76 227.933
L743.886 233.113
L746.118 236.355
L747.681 238.434
L749.021 240.093
L753.486 244.495
L756.835 246.814
L758.845 247.929
L760.854 248.81
L763.087 249.726
L765.99 250.68
L770.902 251.937
L772.688 252.226
L773.358 252.353
L776.037 252.666
L777.6 252.792
L777.6 252.792" style="fill:none;stroke:#0000ff;stroke-linecap:square;"/>
   </g>
   <g id="line2d_8">
    <path clip-path="url(#pf8ef257490)" d="
M108 304.637
L108.447 297.285
L109.116 278.934
L112.019 187.488
L112.689 174.768
L113.359 166.927
L113.805 164.503
L114.028 164.099
L114.252 164.183
L114.475 164.823
L114.922 167.559
L115.368 172.053
L116.038 181.667
L116.931 198.54
L118.494 233.773
L119.61 257.179
L120.28 266.768
L120.95 273.754
L121.62 278.808
L122.29 282.511
L122.959 285.245
L123.852 287.723
L124.522 289.023
L124.746 289.385
L124.969 289.512
L125.192 289.301
L125.415 288.829
L125.862 287.07
L126.532 282.804
L127.425 274.9
L129.211 255.7
L130.551 242.206
L131.444 235.236
L132.114 231.394
L132.783 228.974
L133.23 228.17
L133.453 227.984
L133.677 227.943
L133.9 228.092
L134.346 228.831
L134.793 230.087
L135.463 232.898
L136.356 238.037
L137.919 249.161
L139.482 260.141
L140.375 265.205
L141.045 268.155
L141.714 270.187
L142.161 271.062
L142.608 271.479
L143.054 271.493
L143.501 271.055
L143.947 270.276
L144.617 268.493
L145.51 265.071
L146.85 258.647
L148.859 248.987
L149.752 245.685
L150.645 243.411
L151.315 242.408
L151.762 242.129
L152.208 242.126
L152.655 242.395
L153.101 242.939
L153.771 244.165
L154.441 245.868
L155.557 249.338
L157.567 256.094
L158.683 259.192
L159.576 260.98
L160.469 261.994
L160.916 262.201
L161.586 262.193
L162.256 261.709
L162.926 260.919
L164.042 258.875
L165.382 255.848
L166.944 252.289
L168.061 250.277
L168.954 249.166
L169.624 248.679
L170.517 248.506
L171.187 248.732
L171.633 249.041
L172.526 249.934
L173.419 251.131
L174.982 253.602
L176.099 255.302
L177.438 256.896
L178.331 257.6
L179.448 257.897
L180.118 257.836
L181.011 257.455
L181.904 256.791
L183.02 255.708
L185.923 252.733
L187.039 251.957
L188.156 251.566
L189.272 251.581
L189.718 251.671
L191.058 252.241
L192.621 253.336
L193.737 254.139
L194.63 254.753
L195.3 255.16
L196.863 255.786
L198.649 255.847
L201.105 254.998
L203.338 253.849
L206.464 252.914
L207.804 252.915
L210.26 253.496
L212.046 254.113
L213.832 254.659
L215.172 254.887
L216.958 254.922
L219.414 254.52
L220.084 245.919
L220.977 237.578
L221.87 231.501
L222.763 226.933
L223.656 223.636
L224.549 221.429
L225.219 220.373
L225.666 219.93
L226.335 219.55
L227.005 219.523
L228.568 220.244
L229.908 221.097
L230.578 221.42
L231.694 221.575
L232.364 221.395
L233.257 220.799
L234.15 219.78
L235.266 218
L236.383 215.754
L239.732 208.224
L241.072 205.77
L242.634 203.722
L243.528 202.976
L245.09 202.319
L246.207 202.212
L248.886 202.469
L250.003 202.424
L250.449 202.381
L252.459 201.67
L253.128 201.277
L254.691 200.11
L259.38 195.806
L260.72 194.906
L261.836 194.301
L263.399 193.741
L265.408 193.351
L266.748 193.237
L268.534 193.092
L271.437 192.938
L272.553 192.868
L276.572 192.883
L277.242 192.919
L281.931 193.416
L284.387 193.85
L285.057 193.955
L287.959 194.556
L289.969 195.022
L290.638 195.155
L292.201 195.551
L293.541 195.912
L295.551 196.468
L296.667 196.777
L301.802 198.4
L302.695 198.726
L303.365 198.966
L305.375 199.692
L308.054 200.696
L308.724 200.999
L310.063 201.542
L312.296 202.504
L315.422 203.982
L316.092 204.312
L325.023 209.302
L327.255 210.716
L328.149 211.329
L333.061 214.872
L334.177 215.759
L335.517 216.813
L337.303 218.294
L339.089 219.867
L341.768 222.328
L350.699 231.681
L357.398 239.618
L360.747 243.719
L368.115 252.527
L374.366 259.258
L375.259 259.963
L377.046 260.731
L378.609 261.025
L381.288 261.197
L385.753 261.288
L387.316 261.272
L388.209 261.297
L401.383 261.284
L402.276 261.296
L408.751 261.273
L409.867 261.305
L411.43 261.269
L417.012 261.289
L447.154 261.292
L448.94 261.289
L450.726 261.287
L452.289 261.299
L453.852 261.274
L455.192 261.299
L460.55 261.289
L464.346 261.294
L465.686 261.309
L466.355 261.289
L467.695 261.293
L470.821 261.302
L472.161 261.27
L472.83 261.308
L474.617 261.286
L476.849 261.295
L481.092 261.295
L482.878 261.293
L484.887 261.301
L492.032 261.284
L493.372 261.305
L497.167 261.274
L498.06 261.304
L498.73 261.31
L504.312 261.272
L505.205 261.297
L517.485 261.3
L519.495 261.282
L520.611 261.289
L521.728 261.284
L526.416 261.287
L568.615 261.309
L569.285 261.27
L571.741 261.294
L572.857 261.273
L574.42 261.294
L575.313 261.291
L579.332 261.285
L580.895 261.299
L584.691 261.298
L586.924 261.295
L588.933 261.3
L590.719 261.268
L591.612 261.309
L593.399 261.28
L594.068 261.267
L596.971 261.292
L598.087 261.268
L598.757 261.275
L646.315 261.299
L648.101 261.297
L649.44 261.297
L655.022 261.278
L655.692 261.288
L656.809 261.272
L657.702 261.31
L658.818 261.275
L665.963 261.309
L666.633 269.743
L667.302 275.893
L667.972 280.394
L668.642 283.687
L669.312 286.063
L669.982 287.814
L670.875 289.414
L671.768 290.501
L672.661 291.192
L674.67 291.968
L675.787 292.207
L679.806 292.444
L680.699 291.999
L682.039 290.718
L684.718 287.332
L687.174 284.853
L688.067 284.304
L688.737 284.036
L689.407 283.867
L690.523 283.803
L692.979 284.295
L695.882 284.843
L696.551 284.836
L697.444 284.701
L699.454 283.919
L701.017 282.91
L704.813 280.218
L707.269 278.992
L708.831 278.549
L709.725 278.378
L713.074 277.881
L716.869 276.641
L722.674 273.004
L724.907 271.581
L728.256 269.701
L729.373 269.167
L735.848 265.538
L743.662 260.715
L745.002 260.082
L745.895 259.696
L751.254 257.942
L751.923 257.778
L761.078 255.703
L762.417 255.497
L764.65 255.245
L766.213 255.149
L766.883 255.09
L776.707 254.537
L777.6 254.485
L777.6 254.485" style="fill:none;stroke:#0000ff;stroke-linecap:square;"/>
   </g>
   <g id="patch_3">
    <path d="
M108 36
L777.6 36" style="fill:none;stroke:#000000;stroke-linecap:square;stroke-linejoin:miter;"/>
   </g>
   <g id="patch_4">
    <path d="
M777.6 306
L777.6 36" style="fill:none;stroke:#000000;stroke-linecap:square;stroke-linejoin:miter;"/>
   </g>
   <g id="patch_5">
    <path d="
M108 306
L777.6 306" style="fill:none;stroke:#000000;stroke-linecap:square;stroke-linejoin:miter;"/>
   </g>
   <g id="patch_6">
    <path d="
M108 306
L108 36" style="fill:none;stroke:#000000;stroke-linecap:square;stroke-linejoin:miter;"/>
   </g>
   <g id="matplotlib.axis_1">
    <g id="xtick_1">
     <g id="line2d_9">
      <defs>
       <path d="
M0 0
L0 -4" id="m93b0483c22" style="stroke:#000000;stroke-width:0.5;"/>
      </defs>
      <g>
       <use style="stroke:#000000;stroke-width:0.5;" x="108.0" xlink:href="#m93b0483c22" y="306.0"/>
      </g>
     </g>
     <g id="line2d_10">
      <defs>
       <path d="
M0 0
L0 4" id="m741efc42ff" style="stroke:#000000;stroke-width:0.5;"/>
      </defs>
      <g>
       <use style="stroke:#000000;stroke-width:0.5;" x="108.0" xlink:href="#m741efc42ff" y="36.0"/>
      </g>
     </g>
     <g id="text_1">
      <!-- 0.0 -->
      <defs>
       <path d="
M31.7812 66.4062
Q24.1719 66.4062 20.3281 58.9062
Q16.5 51.4219 16.5 36.375
Q16.5 21.3906 20.3281 13.8906
Q24.1719 6.39062 31.7812 6.39062
Q39.4531 6.39062 43.2812 13.8906
Q47.125 21.3906 47.125 36.375
Q47.125 51.4219 43.2812 58.9062
Q39.4531 66.4062 31.7812 66.4062
M31.7812 74.2188
Q44.0469 74.2188 50.5156 64.5156
Q56.9844 54.8281 56.9844 36.375
Q56.9844 17.9688 50.5156 8.26562
Q44.0469 -1.42188 31.7812 -1.42188
Q19.5312 -1.42188 13.0625 8.26562
Q6.59375 17.9688 6.59375 36.375
Q6.59375 54.8281 13.0625 64.5156
Q19.5312 74.2188 31.7812 74.2188" id="DejaVuSans-30"/>
       <path d="
M10.6875 12.4062
L21 12.4062
L21 0
L10.6875 0
z
" id="DejaVuSans-2e"/>
      </defs>
      <g transform="translate(99.2521875 319.118125)scale(0.12 -0.12)">
       <use xlink:href="#DejaVuSans-30"/>
       <use x="63.623046875" xlink:href="#DejaVuSans-2e"/>
       <use x="95.41015625" xlink:href="#DejaVuSans-30"/>
      </g>
     </g>
    </g>
    <g id="xtick_2">
     <g id="line2d_11">
      <g>
       <use style="stroke:#000000;stroke-width:0.5;" x="219.6" xlink:href="#m93b0483c22" y="306.0"/>
      </g>
     </g>
     <g id="line2d_12">
      <g>
       <use style="stroke:#000000;stroke-width:0.5;" x="219.6" xlink:href="#m741efc42ff" y="36.0"/>
      </g>
     </g>
     <g id="text_2">
      <!-- 0.5 -->
      <defs>
       <path d="
M10.7969 72.9062
L49.5156 72.9062
L49.5156 64.5938
L19.8281 64.5938
L19.8281 46.7344
Q21.9688 47.4688 24.1094 47.8281
Q26.2656 48.1875 28.4219 48.1875
Q40.625 48.1875 47.75 41.5
Q54.8906 34.8125 54.8906 23.3906
Q54.8906 11.625 47.5625 5.09375
Q40.2344 -1.42188 26.9062 -1.42188
Q22.3125 -1.42188 17.5469 -0.640625
Q12.7969 0.140625 7.71875 1.70312
L7.71875 11.625
Q12.1094 9.23438 16.7969 8.0625
Q21.4844 6.89062 26.7031 6.89062
Q35.1562 6.89062 40.0781 11.3281
Q45.0156 15.7656 45.0156 23.3906
Q45.0156 31 40.0781 35.4375
Q35.1562 39.8906 26.7031 39.8906
Q22.75 39.8906 18.8125 39.0156
Q14.8906 38.1406 10.7969 36.2812
z
" id="DejaVuSans-35"/>
      </defs>
      <g transform="translate(210.9778125 319.118125)scale(0.12 -0.12)">
       <use xlink:href="#DejaVuSans-30"/>
       <use x="63.623046875" xlink:href="#DejaVuSans-2e"/>
       <use x="95.41015625" xlink:href="#DejaVuSans-35"/>
      </g>
     </g>
    </g>
    <g id="xtick_3">
     <g id="line2d_13">
      <g>
       <use style="stroke:#000000;stroke-width:0.5;" x="331.2" xlink:href="#m93b0483c22" y="306.0"/>
      </g>
     </g>
     <g id="line2d_14">
      <g>
       <use style="stroke:#000000;stroke-width:0.5;" x="331.2" xlink:href="#m741efc42ff" y="36.0"/>
      </g>
     </g>
     <g id="text_3">
      <!-- 1.0 -->
      <defs>
       <path d="
M12.4062 8.29688
L28.5156 8.29688
L28.5156 63.9219
L10.9844 60.4062
L10.9844 69.3906
L28.4219 72.9062
L38.2812 72.9062
L38.2812 8.29688
L54.3906 8.29688
L54.3906 0
L12.4062 0
z
" id="DejaVuSans-31"/>
      </defs>
      <g transform="translate(322.715625 319.118125)scale(0.12 -0.12)">
       <use xlink:href="#DejaVuSans-31"/>
       <use x="63.623046875" xlink:href="#DejaVuSans-2e"/>
       <use x="95.41015625" xlink:href="#DejaVuSans-30"/>
      </g>
     </g>
    </g>
    <g id="xtick_4">
     <g id="line2d_15">
      <g>
       <use style="stroke:#000000;stroke-width:0.5;" x="442.8" xlink:href="#m93b0483c22" y="306.0"/>
      </g>
     </g>
     <g id="line2d_16">
      <g>
       <use style="stroke:#000000;stroke-width:0.5;" x="442.8" xlink:href="#m741efc42ff" y="36.0"/>
      </g>
     </g>
     <g id="text_4">
      <!-- 1.5 -->
      <g transform="translate(434.44125 319.118125)scale(0.12 -0.12)">
       <use xlink:href="#DejaVuSans-31"/>
       <use x="63.623046875" xlink:href="#DejaVuSans-2e"/>
       <use x="95.41015625" xlink:href="#DejaVuSans-35"/>
      </g>
     </g>
    </g>
    <g id="xtick_5">
     <g id="line2d_17">
      <g>
       <use style="stroke:#000000;stroke-width:0.5;" x="554.4" xlink:href="#m93b0483c22" y="306.0"/>
      </g>
     </g>
     <g id="line2d_18">
      <g>
       <use style="stroke:#000000;stroke-width:0.5;" x="554.4" xlink:href="#m741efc42ff" y="36.0"/>
      </g>
     </g>
     <g id="text_5">
      <!-- 2.0 -->
      <defs>
       <path d="
M19.1875 8.29688
L53.6094 8.29688
L53.6094 0
L7.32812 0
L7.32812 8.29688
Q12.9375 14.1094 22.625 23.8906
Q32.3281 33.6875 34.8125 36.5312
Q39.5469 41.8438 41.4219 45.5312
Q43.3125 49.2188 43.3125 52.7812
Q43.3125 58.5938 39.2344 62.25
Q35.1562 65.9219 28.6094 65.9219
Q23.9688 65.9219 18.8125 64.3125
Q13.6719 62.7031 7.8125 59.4219
L7.8125 69.3906
Q13.7656 71.7812 18.9375 73
Q24.125 74.2188 28.4219 74.2188
Q39.75 74.2188 46.4844 68.5469
Q53.2188 62.8906 53.2188 53.4219
Q53.2188 48.9219 51.5312 44.8906
Q49.8594 40.875 45.4062 35.4062
Q44.1875 33.9844 37.6406 27.2188
Q31.1094 20.4531 19.1875 8.29688" id="DejaVuSans-32"/>
      </defs>
      <g transform="translate(545.69625 319.118125)scale(0.12 -0.12)">
       <use xlink:href="#DejaVuSans-32"/>
       <use x="63.623046875" xlink:href="#DejaVuSans-2e"/>
       <use x="95.41015625" xlink:href="#DejaVuSans-30"/>
      </g>
     </g>
    </g>
    <g id="xtick_6">
     <g id="line2d_19">
      <g>
       <use style="stroke:#000000;stroke-width:0.5;" x="666.0" xlink:href="#m93b0483c22" y="306.0"/>
      </g>
     </g>
     <g id="line2d_20">
      <g>
       <use style="stroke:#000000;stroke-width:0.5;" x="666.0" xlink:href="#m741efc42ff" y="36.0"/>
      </g>
     </g>
     <g id="text_6">
      <!-- 2.5 -->
      <g transform="translate(657.421875 319.118125)scale(0.12 -0.12)">
       <use xlink:href="#DejaVuSans-32"/>
       <use x="63.623046875" xlink:href="#DejaVuSans-2e"/>
       <use x="95.41015625" xlink:href="#DejaVuSans-35"/>
      </g>
     </g>
    </g>
    <g id="xtick_7">
     <g id="line2d_21">
      <g>
       <use style="stroke:#000000;stroke-width:0.5;" x="777.6" xlink:href="#m93b0483c22" y="306.0"/>
      </g>
     </g>
     <g id="line2d_22">
      <g>
       <use style="stroke:#000000;stroke-width:0.5;" x="777.6" xlink:href="#m741efc42ff" y="36.0"/>
      </g>
     </g>
     <g id="text_7">
      <!-- 3.0 -->
      <defs>
       <path d="
M40.5781 39.3125
Q47.6562 37.7969 51.625 33
Q55.6094 28.2188 55.6094 21.1875
Q55.6094 10.4062 48.1875 4.48438
Q40.7656 -1.42188 27.0938 -1.42188
Q22.5156 -1.42188 17.6562 -0.515625
Q12.7969 0.390625 7.625 2.20312
L7.625 11.7188
Q11.7188 9.32812 16.5938 8.10938
Q21.4844 6.89062 26.8125 6.89062
Q36.0781 6.89062 40.9375 10.5469
Q45.7969 14.2031 45.7969 21.1875
Q45.7969 27.6406 41.2812 31.2656
Q36.7656 34.9062 28.7188 34.9062
L20.2188 34.9062
L20.2188 43.0156
L29.1094 43.0156
Q36.375 43.0156 40.2344 45.9219
Q44.0938 48.8281 44.0938 54.2969
Q44.0938 59.9062 40.1094 62.9062
Q36.1406 65.9219 28.7188 65.9219
Q24.6562 65.9219 20.0156 65.0312
Q15.375 64.1562 9.8125 62.3125
L9.8125 71.0938
Q15.4375 72.6562 20.3438 73.4375
Q25.25 74.2188 29.5938 74.2188
Q40.8281 74.2188 47.3594 69.1094
Q53.9062 64.0156 53.9062 55.3281
Q53.9062 49.2656 50.4375 45.0938
Q46.9688 40.9219 40.5781 39.3125" id="DejaVuSans-33"/>
      </defs>
      <g transform="translate(768.9140625 319.118125)scale(0.12 -0.12)">
       <use xlink:href="#DejaVuSans-33"/>
       <use x="63.623046875" xlink:href="#DejaVuSans-2e"/>
       <use x="95.41015625" xlink:href="#DejaVuSans-30"/>
      </g>
     </g>
    </g>
    <g id="text_8">
     <!-- Time (seconds) -->
     <defs>
      <path d="
M8.01562 75.875
L15.8281 75.875
Q23.1406 64.3594 26.7812 53.3125
Q30.4219 42.2812 30.4219 31.3906
Q30.4219 20.4531 26.7812 9.375
Q23.1406 -1.70312 15.8281 -13.1875
L8.01562 -13.1875
Q14.5 -2 17.7031 9.0625
Q20.9062 20.125 20.9062 31.3906
Q20.9062 42.6719 17.7031 53.6562
Q14.5 64.6562 8.01562 75.875" id="DejaVuSans-29"/>
      <path d="
M30.6094 48.3906
Q23.3906 48.3906 19.1875 42.75
Q14.9844 37.1094 14.9844 27.2969
Q14.9844 17.4844 19.1562 11.8438
Q23.3438 6.20312 30.6094 6.20312
Q37.7969 6.20312 41.9844 11.8594
Q46.1875 17.5312 46.1875 27.2969
Q46.1875 37.0156 41.9844 42.7031
Q37.7969 48.3906 30.6094 48.3906
M30.6094 56
Q42.3281 56 49.0156 48.375
Q55.7188 40.7656 55.7188 27.2969
Q55.7188 13.875 49.0156 6.21875
Q42.3281 -1.42188 30.6094 -1.42188
Q18.8438 -1.42188 12.1719 6.21875
Q5.51562 13.875 5.51562 27.2969
Q5.51562 40.7656 12.1719 48.375
Q18.8438 56 30.6094 56" id="DejaVuSans-6f"/>
      <path d="
M52 44.1875
Q55.375 50.25 60.0625 53.125
Q64.75 56 71.0938 56
Q79.6406 56 84.2812 50.0156
Q88.9219 44.0469 88.9219 33.0156
L88.9219 0
L79.8906 0
L79.8906 32.7188
Q79.8906 40.5781 77.0938 44.375
Q74.3125 48.1875 68.6094 48.1875
Q61.625 48.1875 57.5625 43.5469
Q53.5156 38.9219 53.5156 30.9062
L53.5156 0
L44.4844 0
L44.4844 32.7188
Q44.4844 40.625 41.7031 44.4062
Q38.9219 48.1875 33.1094 48.1875
Q26.2188 48.1875 22.1562 43.5312
Q18.1094 38.875 18.1094 30.9062
L18.1094 0
L9.07812 0
L9.07812 54.6875
L18.1094 54.6875
L18.1094 46.1875
Q21.1875 51.2188 25.4844 53.6094
Q29.7812 56 35.6875 56
Q41.6562 56 45.8281 52.9688
Q50 49.9531 52 44.1875" id="DejaVuSans-6d"/>
      <path d="
M54.8906 33.0156
L54.8906 0
L45.9062 0
L45.9062 32.7188
Q45.9062 40.4844 42.875 44.3281
Q39.8438 48.1875 33.7969 48.1875
Q26.5156 48.1875 22.3125 43.5469
Q18.1094 38.9219 18.1094 30.9062
L18.1094 0
L9.07812 0
L9.07812 54.6875
L18.1094 54.6875
L18.1094 46.1875
Q21.3438 51.125 25.7031 53.5625
Q30.0781 56 35.7969 56
Q45.2188 56 50.0469 50.1719
Q54.8906 44.3438 54.8906 33.0156" id="DejaVuSans-6e"/>
      <path d="
M45.4062 46.3906
L45.4062 75.9844
L54.3906 75.9844
L54.3906 0
L45.4062 0
L45.4062 8.20312
Q42.5781 3.32812 38.25 0.953125
Q33.9375 -1.42188 27.875 -1.42188
Q17.9688 -1.42188 11.7344 6.48438
Q5.51562 14.4062 5.51562 27.2969
Q5.51562 40.1875 11.7344 48.0938
Q17.9688 56 27.875 56
Q33.9375 56 38.25 53.625
Q42.5781 51.2656 45.4062 46.3906
M14.7969 27.2969
Q14.7969 17.3906 18.875 11.75
Q22.9531 6.10938 30.0781 6.10938
Q37.2031 6.10938 41.2969 11.75
Q45.4062 17.3906 45.4062 27.2969
Q45.4062 37.2031 41.2969 42.8438
Q37.2031 48.4844 30.0781 48.4844
Q22.9531 48.4844 18.875 42.8438
Q14.7969 37.2031 14.7969 27.2969" id="DejaVuSans-64"/>
      <path id="DejaVuSans-20"/>
      <path d="
M9.42188 54.6875
L18.4062 54.6875
L18.4062 0
L9.42188 0
z

M9.42188 75.9844
L18.4062 75.9844
L18.4062 64.5938
L9.42188 64.5938
z
" id="DejaVuSans-69"/>
      <path d="
M31 75.875
Q24.4688 64.6562 21.2812 53.6562
Q18.1094 42.6719 18.1094 31.3906
Q18.1094 20.125 21.3125 9.0625
Q24.5156 -2 31 -13.1875
L23.1875 -13.1875
Q15.875 -1.70312 12.2344 9.375
Q8.59375 20.4531 8.59375 31.3906
Q8.59375 42.2812 12.2031 53.3125
Q15.8281 64.3594 23.1875 75.875
z
" id="DejaVuSans-28"/>
      <path d="
M56.2031 29.5938
L56.2031 25.2031
L14.8906 25.2031
Q15.4844 15.9219 20.4844 11.0625
Q25.4844 6.20312 34.4219 6.20312
Q39.5938 6.20312 44.4531 7.46875
Q49.3125 8.73438 54.1094 11.2812
L54.1094 2.78125
Q49.2656 0.734375 44.1875 -0.34375
Q39.1094 -1.42188 33.8906 -1.42188
Q20.7969 -1.42188 13.1562 6.1875
Q5.51562 13.8125 5.51562 26.8125
Q5.51562 40.2344 12.7656 48.1094
Q20.0156 56 32.3281 56
Q43.3594 56 49.7812 48.8906
Q56.2031 41.7969 56.2031 29.5938
M47.2188 32.2344
Q47.125 39.5938 43.0938 43.9844
Q39.0625 48.3906 32.4219 48.3906
Q24.9062 48.3906 20.3906 44.1406
Q15.875 39.8906 15.1875 32.1719
z
" id="DejaVuSans-65"/>
      <path d="
M48.7812 52.5938
L48.7812 44.1875
Q44.9688 46.2969 41.1406 47.3438
Q37.3125 48.3906 33.4062 48.3906
Q24.6562 48.3906 19.8125 42.8438
Q14.9844 37.3125 14.9844 27.2969
Q14.9844 17.2812 19.8125 11.7344
Q24.6562 6.20312 33.4062 6.20312
Q37.3125 6.20312 41.1406 7.25
Q44.9688 8.29688 48.7812 10.4062
L48.7812 2.09375
Q45.0156 0.34375 40.9844 -0.53125
Q36.9688 -1.42188 32.4219 -1.42188
Q20.0625 -1.42188 12.7812 6.34375
Q5.51562 14.1094 5.51562 27.2969
Q5.51562 40.6719 12.8594 48.3281
Q20.2188 56 33.0156 56
Q37.1562 56 41.1094 55.1406
Q45.0625 54.2969 48.7812 52.5938" id="DejaVuSans-63"/>
      <path d="
M44.2812 53.0781
L44.2812 44.5781
Q40.4844 46.5312 36.375 47.5
Q32.2812 48.4844 27.875 48.4844
Q21.1875 48.4844 17.8438 46.4375
Q14.5 44.3906 14.5 40.2812
Q14.5 37.1562 16.8906 35.375
Q19.2812 33.5938 26.5156 31.9844
L29.5938 31.2969
Q39.1562 29.25 43.1875 25.5156
Q47.2188 21.7812 47.2188 15.0938
Q47.2188 7.46875 41.1875 3.01562
Q35.1562 -1.42188 24.6094 -1.42188
Q20.2188 -1.42188 15.4531 -0.5625
Q10.6875 0.296875 5.42188 2
L5.42188 11.2812
Q10.4062 8.6875 15.2344 7.39062
Q20.0625 6.10938 24.8125 6.10938
Q31.1562 6.10938 34.5625 8.28125
Q37.9844 10.4531 37.9844 14.4062
Q37.9844 18.0625 35.5156 20.0156
Q33.0625 21.9688 24.7031 23.7812
L21.5781 24.5156
Q13.2344 26.2656 9.51562 29.9062
Q5.8125 33.5469 5.8125 39.8906
Q5.8125 47.6094 11.2812 51.7969
Q16.75 56 26.8125 56
Q31.7812 56 36.1719 55.2656
Q40.5781 54.5469 44.2812 53.0781" id="DejaVuSans-73"/>
      <path d="
M-0.296875 72.9062
L61.375 72.9062
L61.375 64.5938
L35.5 64.5938
L35.5 0
L25.5938 0
L25.5938 64.5938
L-0.296875 64.5938
z
" id="DejaVuSans-54"/>
     </defs>
     <g transform="translate(397.50375 335.731875)scale(0.12 -0.12)">
      <use xlink:href="#DejaVuSans-54"/>
      <use x="57.958984375" xlink:href="#DejaVuSans-69"/>
      <use x="85.7421875" xlink:href="#DejaVuSans-6d"/>
      <use x="183.154296875" xlink:href="#DejaVuSans-65"/>
      <use x="244.677734375" xlink:href="#DejaVuSans-20"/>
      <use x="276.46484375" xlink:href="#DejaVuSans-28"/>
      <use x="315.478515625" xlink:href="#DejaVuSans-73"/>
      <use x="367.578125" xlink:href="#DejaVuSans-65"/>
      <use x="429.1015625" xlink:href="#DejaVuSans-63"/>
      <use x="484.08203125" xlink:href="#DejaVuSans-6f"/>
      <use x="545.263671875" xlink:href="#DejaVuSans-6e"/>
      <use x="608.642578125" xlink:href="#DejaVuSans-64"/>
      <use x="672.119140625" xlink:href="#DejaVuSans-73"/>
      <use x="724.21875" xlink:href="#DejaVuSans-29"/>
     </g>
    </g>
   </g>
   <g id="matplotlib.axis_2">
    <g id="ytick_1">
     <g id="line2d_23">
      <defs>
       <path d="
M0 0
L4 0" id="m728421d6d4" style="stroke:#000000;stroke-width:0.5;"/>
      </defs>
      <g>
       <use style="stroke:#000000;stroke-width:0.5;" x="108.0" xlink:href="#m728421d6d4" y="306.0"/>
      </g>
     </g>
     <g id="line2d_24">
      <defs>
       <path d="
M0 0
L-4 0" id="mcb0005524f" style="stroke:#000000;stroke-width:0.5;"/>
      </defs>
      <g>
       <use style="stroke:#000000;stroke-width:0.5;" x="777.6" xlink:href="#mcb0005524f" y="306.0"/>
      </g>
     </g>
     <g id="text_9">
      <!-- 0 -->
      <g transform="translate(97.953125 309.31125)scale(0.12 -0.12)">
       <use xlink:href="#DejaVuSans-30"/>
      </g>
     </g>
    </g>
    <g id="ytick_2">
     <g id="line2d_25">
      <g>
       <use style="stroke:#000000;stroke-width:0.5;" x="108.0" xlink:href="#m728421d6d4" y="261.0"/>
      </g>
     </g>
     <g id="line2d_26">
      <g>
       <use style="stroke:#000000;stroke-width:0.5;" x="777.6" xlink:href="#mcb0005524f" y="261.0"/>
      </g>
     </g>
     <g id="text_10">
      <!-- 10 -->
      <g transform="translate(90.845 264.31125)scale(0.12 -0.12)">
       <use xlink:href="#DejaVuSans-31"/>
       <use x="63.623046875" xlink:href="#DejaVuSans-30"/>
      </g>
     </g>
    </g>
    <g id="ytick_3">
     <g id="line2d_27">
      <g>
       <use style="stroke:#000000;stroke-width:0.5;" x="108.0" xlink:href="#m728421d6d4" y="216.0"/>
      </g>
     </g>
     <g id="line2d_28">
      <g>
       <use style="stroke:#000000;stroke-width:0.5;" x="777.6" xlink:href="#mcb0005524f" y="216.0"/>
      </g>
     </g>
     <g id="text_11">
      <!-- 20 -->
      <g transform="translate(90.40625 219.31125)scale(0.12 -0.12)">
       <use xlink:href="#DejaVuSans-32"/>
       <use x="63.623046875" xlink:href="#DejaVuSans-30"/>
      </g>
     </g>
    </g>
    <g id="ytick_4">
     <g id="line2d_29">
      <g>
       <use style="stroke:#000000;stroke-width:0.5;" x="108.0" xlink:href="#m728421d6d4" y="171.0"/>
      </g>
     </g>
     <g id="line2d_30">
      <g>
       <use style="stroke:#000000;stroke-width:0.5;" x="777.6" xlink:href="#mcb0005524f" y="171.0"/>
      </g>
     </g>
     <g id="text_12">
      <!-- 30 -->
      <g transform="translate(90.441875 174.31125)scale(0.12 -0.12)">
       <use xlink:href="#DejaVuSans-33"/>
       <use x="63.623046875" xlink:href="#DejaVuSans-30"/>
      </g>
     </g>
    </g>
    <g id="ytick_5">
     <g id="line2d_31">
      <g>
       <use style="stroke:#000000;stroke-width:0.5;" x="108.0" xlink:href="#m728421d6d4" y="126.0"/>
      </g>
     </g>
     <g id="line2d_32">
      <g>
       <use style="stroke:#000000;stroke-width:0.5;" x="777.6" xlink:href="#mcb0005524f" y="126.0"/>
      </g>
     </g>
     <g id="text_13">
      <!-- 40 -->
      <defs>
       <path d="
M37.7969 64.3125
L12.8906 25.3906
L37.7969 25.3906
z

M35.2031 72.9062
L47.6094 72.9062
L47.6094 25.3906
L58.0156 25.3906
L58.0156 17.1875
L47.6094 17.1875
L47.6094 0
L37.7969 0
L37.7969 17.1875
L4.89062 17.1875
L4.89062 26.7031
z
" id="DejaVuSans-34"/>
      </defs>
      <g transform="translate(90.11375 129.31125)scale(0.12 -0.12)">
       <use xlink:href="#DejaVuSans-34"/>
       <use x="63.623046875" xlink:href="#DejaVuSans-30"/>
      </g>
     </g>
    </g>
    <g id="ytick_6">
     <g id="line2d_33">
      <g>
       <use style="stroke:#000000;stroke-width:0.5;" x="108.0" xlink:href="#m728421d6d4" y="81.0"/>
      </g>
     </g>
     <g id="line2d_34">
      <g>
       <use style="stroke:#000000;stroke-width:0.5;" x="777.6" xlink:href="#mcb0005524f" y="81.0"/>
      </g>
     </g>
     <g id="text_14">
      <!-- 50 -->
      <g transform="translate(90.453125 84.31125)scale(0.12 -0.12)">
       <use xlink:href="#DejaVuSans-35"/>
       <use x="63.623046875" xlink:href="#DejaVuSans-30"/>
      </g>
     </g>
    </g>
    <g id="ytick_7">
     <g id="line2d_35">
      <g>
       <use style="stroke:#000000;stroke-width:0.5;" x="108.0" xlink:href="#m728421d6d4" y="36.0"/>
      </g>
     </g>
     <g id="line2d_36">
      <g>
       <use style="stroke:#000000;stroke-width:0.5;" x="777.6" xlink:href="#mcb0005524f" y="36.0"/>
      </g>
     </g>
     <g id="text_15">
      <!-- 60 -->
      <defs>
       <path d="
M33.0156 40.375
Q26.375 40.375 22.4844 35.8281
Q18.6094 31.2969 18.6094 23.3906
Q18.6094 15.5312 22.4844 10.9531
Q26.375 6.39062 33.0156 6.39062
Q39.6562 6.39062 43.5312 10.9531
Q47.4062 15.5312 47.4062 23.3906
Q47.4062 31.2969 43.5312 35.8281
Q39.6562 40.375 33.0156 40.375
M52.5938 71.2969
L52.5938 62.3125
Q48.875 64.0625 45.0938 64.9844
Q41.3125 65.9219 37.5938 65.9219
Q27.8281 65.9219 22.6719 59.3281
Q17.5312 52.7344 16.7969 39.4062
Q19.6719 43.6562 24.0156 45.9219
Q28.375 48.1875 33.5938 48.1875
Q44.5781 48.1875 50.9531 41.5156
Q57.3281 34.8594 57.3281 23.3906
Q57.3281 12.1562 50.6875 5.35938
Q44.0469 -1.42188 33.0156 -1.42188
Q20.3594 -1.42188 13.6719 8.26562
Q6.98438 17.9688 6.98438 36.375
Q6.98438 53.6562 15.1875 63.9375
Q23.3906 74.2188 37.2031 74.2188
Q40.9219 74.2188 44.7031 73.4844
Q48.4844 72.75 52.5938 71.2969" id="DejaVuSans-36"/>
      </defs>
      <g transform="translate(90.365 39.31125)scale(0.12 -0.12)">
       <use xlink:href="#DejaVuSans-36"/>
       <use x="63.623046875" xlink:href="#DejaVuSans-30"/>
      </g>
     </g>
    </g>
    <g id="text_16">
     <!-- Activity (Hz) -->
     <defs>
      <path d="
M5.51562 54.6875
L48.1875 54.6875
L48.1875 46.4844
L14.4062 7.17188
L48.1875 7.17188
L48.1875 0
L4.29688 0
L4.29688 8.20312
L38.0938 47.5156
L5.51562 47.5156
z
" id="DejaVuSans-7a"/>
      <path d="
M32.1719 -5.07812
Q28.375 -14.8438 24.75 -17.8125
Q21.1406 -20.7969 15.0938 -20.7969
L7.90625 -20.7969
L7.90625 -13.2812
L13.1875 -13.2812
Q16.8906 -13.2812 18.9375 -11.5156
Q21 -9.76562 23.4844 -3.21875
L25.0938 0.875
L2.98438 54.6875
L12.5 54.6875
L29.5938 11.9219
L46.6875 54.6875
L56.2031 54.6875
z
" id="DejaVuSans-79"/>
      <path d="
M34.1875 63.1875
L20.7969 26.9062
L47.6094 26.9062
z

M28.6094 72.9062
L39.7969 72.9062
L67.5781 0
L57.3281 0
L50.6875 18.7031
L17.8281 18.7031
L11.1875 0
L0.78125 0
z
" id="DejaVuSans-41"/>
      <path d="
M18.3125 70.2188
L18.3125 54.6875
L36.8125 54.6875
L36.8125 47.7031
L18.3125 47.7031
L18.3125 18.0156
Q18.3125 11.3281 20.1406 9.42188
Q21.9688 7.51562 27.5938 7.51562
L36.8125 7.51562
L36.8125 0
L27.5938 0
Q17.1875 0 13.2344 3.875
Q9.28125 7.76562 9.28125 18.0156
L9.28125 47.7031
L2.6875 47.7031
L2.6875 54.6875
L9.28125 54.6875
L9.28125 70.2188
z
" id="DejaVuSans-74"/>
      <path d="
M2.98438 54.6875
L12.5 54.6875
L29.5938 8.79688
L46.6875 54.6875
L56.2031 54.6875
L35.6875 0
L23.4844 0
z
" id="DejaVuSans-76"/>
      <path d="
M9.8125 72.9062
L19.6719 72.9062
L19.6719 43.0156
L55.5156 43.0156
L55.5156 72.9062
L65.375 72.9062
L65.375 0
L55.5156 0
L55.5156 34.7188
L19.6719 34.7188
L19.6719 0
L9.8125 0
z
" id="DejaVuSans-48"/>
     </defs>
     <g transform="translate(82.618125 207.1734375)rotate(-90.0)scale(0.12 -0.12)">
      <use xlink:href="#DejaVuSans-41"/>
      <use x="66.658203125" xlink:href="#DejaVuSans-63"/>
      <use x="121.638671875" xlink:href="#DejaVuSans-74"/>
      <use x="160.84765625" xlink:href="#DejaVuSans-69"/>
      <use x="188.630859375" xlink:href="#DejaVuSans-76"/>
      <use x="247.810546875" xlink:href="#DejaVuSans-69"/>
      <use x="275.59375" xlink:href="#DejaVuSans-74"/>
      <use x="314.802734375" xlink:href="#DejaVuSans-79"/>
      <use x="373.982421875" xlink:href="#DejaVuSans-20"/>
      <use x="405.76953125" xlink:href="#DejaVuSans-28"/>
      <use x="444.783203125" xlink:href="#DejaVuSans-48"/>
      <use x="519.978515625" xlink:href="#DejaVuSans-7a"/>
      <use x="572.46875" xlink:href="#DejaVuSans-29"/>
     </g>
    </g>
   </g>
   <g id="legend_1">
    <g id="line2d_37">
     <path d="
M125.28 54.8617
L145.44 54.8617" style="fill:none;stroke:#ff0000;stroke-linecap:square;"/>
    </g>
    <g id="line2d_38"/>
    <g id="text_17">
     <!-- Cognitive Cortex -->
     <defs>
      <path d="
M45.4062 27.9844
Q45.4062 37.75 41.375 43.1094
Q37.3594 48.4844 30.0781 48.4844
Q22.8594 48.4844 18.8281 43.1094
Q14.7969 37.75 14.7969 27.9844
Q14.7969 18.2656 18.8281 12.8906
Q22.8594 7.51562 30.0781 7.51562
Q37.3594 7.51562 41.375 12.8906
Q45.4062 18.2656 45.4062 27.9844
M54.3906 6.78125
Q54.3906 -7.17188 48.1875 -13.9844
Q42 -20.7969 29.2031 -20.7969
Q24.4688 -20.7969 20.2656 -20.0938
Q16.0625 -19.3906 12.1094 -17.9219
L12.1094 -9.1875
Q16.0625 -11.3281 19.9219 -12.3438
Q23.7812 -13.375 27.7812 -13.375
Q36.625 -13.375 41.0156 -8.76562
Q45.4062 -4.15625 45.4062 5.17188
L45.4062 9.625
Q42.625 4.78125 38.2812 2.39062
Q33.9375 0 27.875 0
Q17.8281 0 11.6719 7.65625
Q5.51562 15.3281 5.51562 27.9844
Q5.51562 40.6719 11.6719 48.3281
Q17.8281 56 27.875 56
Q33.9375 56 38.2812 53.6094
Q42.625 51.2188 45.4062 46.3906
L45.4062 54.6875
L54.3906 54.6875
z
" id="DejaVuSans-67"/>
      <path d="
M41.1094 46.2969
Q39.5938 47.1719 37.8125 47.5781
Q36.0312 48 33.8906 48
Q26.2656 48 22.1875 43.0469
Q18.1094 38.0938 18.1094 28.8125
L18.1094 0
L9.07812 0
L9.07812 54.6875
L18.1094 54.6875
L18.1094 46.1875
Q20.9531 51.1719 25.4844 53.5781
Q30.0312 56 36.5312 56
Q37.4531 56 38.5781 55.875
Q39.7031 55.7656 41.0625 55.5156
z
" id="DejaVuSans-72"/>
      <path d="
M54.8906 54.6875
L35.1094 28.0781
L55.9062 0
L45.3125 0
L29.3906 21.4844
L13.4844 0
L2.875 0
L24.125 28.6094
L4.6875 54.6875
L15.2812 54.6875
L29.7812 35.2031
L44.2812 54.6875
z
" id="DejaVuSans-78"/>
      <path d="
M64.4062 67.2812
L64.4062 56.8906
Q59.4219 61.5312 53.7812 63.8125
Q48.1406 66.1094 41.7969 66.1094
Q29.2969 66.1094 22.6562 58.4688
Q16.0156 50.8281 16.0156 36.375
Q16.0156 21.9688 22.6562 14.3281
Q29.2969 6.6875 41.7969 6.6875
Q48.1406 6.6875 53.7812 8.98438
Q59.4219 11.2812 64.4062 15.9219
L64.4062 5.60938
Q59.2344 2.09375 53.4375 0.328125
Q47.6562 -1.42188 41.2188 -1.42188
Q24.6562 -1.42188 15.125 8.70312
Q5.60938 18.8438 5.60938 36.375
Q5.60938 53.9531 15.125 64.0781
Q24.6562 74.2188 41.2188 74.2188
Q47.75 74.2188 53.5312 72.4844
Q59.3281 70.75 64.4062 67.2812" id="DejaVuSans-43"/>
     </defs>
     <g transform="translate(161.28 59.90175)scale(0.144 -0.144)">
      <use xlink:href="#DejaVuSans-43"/>
      <use x="69.82421875" xlink:href="#DejaVuSans-6f"/>
      <use x="131.005859375" xlink:href="#DejaVuSans-67"/>
      <use x="194.482421875" xlink:href="#DejaVuSans-6e"/>
      <use x="257.861328125" xlink:href="#DejaVuSans-69"/>
      <use x="285.64453125" xlink:href="#DejaVuSans-74"/>
      <use x="324.853515625" xlink:href="#DejaVuSans-69"/>
      <use x="352.63671875" xlink:href="#DejaVuSans-76"/>
      <use x="411.81640625" xlink:href="#DejaVuSans-65"/>
      <use x="473.33984375" xlink:href="#DejaVuSans-20"/>
      <use x="505.126953125" xlink:href="#DejaVuSans-43"/>
      <use x="574.951171875" xlink:href="#DejaVuSans-6f"/>
      <use x="636.1328125" xlink:href="#DejaVuSans-72"/>
      <use x="677.24609375" xlink:href="#DejaVuSans-74"/>
      <use x="716.455078125" xlink:href="#DejaVuSans-65"/>
      <use x="776.228515625" xlink:href="#DejaVuSans-78"/>
     </g>
    </g>
    <g id="line2d_39">
     <path d="
M125.28 75.9982
L145.44 75.9982" style="fill:none;stroke:#0000ff;stroke-linecap:square;"/>
    </g>
    <g id="line2d_40"/>
    <g id="text_18">
     <!-- Motor Cortex -->
     <defs>
      <path d="
M9.8125 72.9062
L24.5156 72.9062
L43.1094 23.2969
L61.8125 72.9062
L76.5156 72.9062
L76.5156 0
L66.8906 0
L66.8906 64.0156
L48.0938 14.0156
L38.1875 14.0156
L19.3906 64.0156
L19.3906 0
L9.8125 0
z
" id="DejaVuSans-4d"/>
     </defs>
     <g transform="translate(161.28 81.03825)scale(0.144 -0.144)">
      <use xlink:href="#DejaVuSans-4d"/>
      <use x="86.279296875" xlink:href="#DejaVuSans-6f"/>
      <use x="147.4609375" xlink:href="#DejaVuSans-74"/>
      <use x="186.669921875" xlink:href="#DejaVuSans-6f"/>
      <use x="247.8515625" xlink:href="#DejaVuSans-72"/>
      <use x="288.96484375" xlink:href="#DejaVuSans-20"/>
      <use x="320.751953125" xlink:href="#DejaVuSans-43"/>
      <use x="390.576171875" xlink:href="#DejaVuSans-6f"/>
      <use x="451.7578125" xlink:href="#DejaVuSans-72"/>
      <use x="492.87109375" xlink:href="#DejaVuSans-74"/>
      <use x="532.080078125" xlink:href="#DejaVuSans-65"/>
      <use x="591.853515625" xlink:href="#DejaVuSans-78"/>
     </g>
    </g>
   </g>
  </g>
 </g>
 <defs>
  <clipPath id="pf8ef257490">
   <rect height="270.0" width="669.6" x="108.0" y="36.0"/>
  </clipPath>
 </defs>
</svg>
